<?xml version="1.0" standalone="no"?>
<!DOCTYPE svg PUBLIC "-//W3C//DTD SVG 20010904//EN"
 "http://www.w3.org/TR/2001/REC-SVG-20010904/DTD/svg10.dtd">
<svg version="1.0" xmlns="http://www.w3.org/2000/svg"
 width="978.000000pt" height="427.000000pt" viewBox="0 0 978.000000 427.000000"
 preserveAspectRatio="xMidYMid meet">

<g transform="translate(0.000000,427.000000) scale(0.100000,-0.100000)"
fill="#000000" stroke="none">
<path d="M4644 3481 c-40 -18 -94 -75 -94 -99 0 -8 78 -12 278 -14 l277 -3 3
-26 c2 -14 -3 -31 -10 -36 -8 -7 -94 -13 -229 -15 l-216 -3 -41 -27 c-60 -40
-70 -68 -73 -189 l-2 -104 372 -3 c357 -2 371 -2 371 17 0 22 -33 66 -63 84
-15 8 -97 14 -262 17 l-240 5 -3 27 c-6 51 21 58 228 58 104 0 202 5 225 11
22 6 56 28 77 49 36 36 38 41 38 103 0 60 -3 70 -32 103 -54 61 -70 64 -330
64 -206 0 -238 -3 -274 -19z"/>
<path d="M2854 3142 c-10 -2 -63 -14 -116 -27 -219 -55 -376 -143 -537 -302
-52 -51 -92 -94 -90 -96 2 -1 434 0 959 3 774 4 960 3 980 -8 l25 -13 -26 23
c-22 19 -25 28 -18 53 5 16 5 32 0 35 -11 7 -20 239 -10 246 14 8 10 27 -4 21
-8 -3 -14 1 -14 9 0 8 5 13 12 11 6 -3 11 5 11 18 l0 24 -405 1 c-224 0 -483
2 -577 3 -94 1 -179 1 -190 -1z"/>
<path d="M4040 3129 c0 -5 5 -7 11 -4 14 9 109 -55 159 -106 66 -69 85 -119
85 -229 -1 -107 -19 -161 -80 -235 -43 -53 -128 -109 -153 -101 -10 4 -27 -1
-38 -11 -11 -10 -26 -20 -34 -23 -8 -3 -602 -7 -1320 -10 -1427 -6 -1300 -1
-1490 -62 -152 -49 -292 -139 -426 -276 l-76 -77 1628 -3 c1205 -2 1643 0
1684 9 118 24 246 97 347 196 127 124 190 266 200 450 5 93 3 108 -22 180 -53
152 -149 249 -291 293 -70 21 -184 27 -184 9z"/>
<path d="M4060 2736 c0 -2 8 -10 18 -17 15 -13 16 -12 3 4 -13 16 -21 21 -21
13z"/>
<path d="M4060 2470 c0 -6 7 -10 15 -10 8 0 15 2 15 4 0 2 -7 6 -15 10 -8 3
-15 1 -15 -4z"/>
<path d="M4646 2400 c-77 -39 -106 -84 -106 -165 0 -66 30 -118 87 -152 l48
-28 245 -5 c135 -3 251 -9 258 -13 17 -11 15 -52 -4 -71 -13 -14 -57 -16 -325
-16 l-309 0 0 -70 0 -70 348 0 348 0 52 26 c69 34 95 78 96 158 1 73 -17 108
-77 151 l-42 30 -235 3 c-129 1 -245 5 -257 7 -35 8 -48 41 -28 71 l15 24 315
0 315 0 0 70 0 70 -352 0 c-330 -1 -356 -2 -392 -20z"/>
<path d="M5555 2401 c-46 -21 -79 -54 -94 -94 -6 -16 -11 -101 -11 -193 0
-182 10 -222 67 -262 57 -39 85 -42 439 -42 l344 0 0 70 0 70 -285 0 c-319 0
-335 3 -361 65 -18 44 -18 156 0 199 27 66 28 66 353 66 l293 0 0 70 0 70
-352 0 c-322 0 -357 -2 -393 -19z"/>
<path d="M6465 2401 c-46 -21 -79 -54 -94 -94 -6 -16 -11 -101 -11 -195 0
-192 7 -216 79 -267 l43 -30 281 -3 c237 -3 287 -1 322 13 49 18 102 67 113
104 4 14 7 103 7 196 0 195 -6 216 -77 263 l-41 27 -291 3 c-266 2 -294 0
-331 -17z m501 -139 c36 -28 44 -57 44 -147 0 -95 -15 -135 -57 -154 -39 -18
-308 -14 -344 5 -40 20 -59 68 -59 149 0 75 17 125 51 149 36 24 334 23 365
-2z"/>
<path d="M7270 2115 l0 -305 95 0 95 0 0 85 0 85 153 0 154 0 57 -85 56 -85
115 0 c63 0 115 2 115 5 0 3 -25 42 -55 87 -58 86 -63 98 -42 98 26 0 86 69
98 113 15 55 7 173 -15 215 -9 17 -35 44 -58 60 l-42 27 -363 3 -363 3 0 -306z
m627 143 c34 -31 32 -90 -4 -117 -25 -20 -36 -21 -227 -19 l-201 3 -3 78 -3
77 207 0 c199 0 209 -1 231 -22z"/>
<path d="M8180 2350 l0 -70 425 0 425 0 0 70 0 70 -425 0 -425 0 0 -70z"/>
<path d="M8180 2115 l0 -65 425 0 425 0 0 65 0 65 -425 0 -425 0 0 -65z"/>
<path d="M8180 1880 l0 -70 425 0 425 0 0 70 0 70 -425 0 -425 0 0 -70z"/>
<path d="M1936 1648 c93 -184 264 -312 494 -373 l95 -25 1021 0 c1118 0 1100
-1 1278 59 181 62 367 187 499 338 l29 33 -1716 0 -1717 0 17 -32z"/>
</g>
</svg>
